<svg id="svg" version="1.1" width="998" height="487" xmlns="http://www.w3.org/2000/svg"><path d="M853.500 44.824 C 839.302 48.499,828.806 54.919,816.500 67.457 C 783.651 100.925,771.892 143.726,783.126 188.933 C 789.901 216.200,808.268 240.525,830.589 251.792 C 842.841 257.977,849.950 259.501,866.500 259.490 C 879.246 259.481,882.571 259.142,888.627 257.234 C 920.453 247.206,943.123 219.881,951.065 181.974 C 953.919 168.355,954.183 146.599,951.652 133.725 C 946.133 105.658,928.482 74.433,909.659 59.435 C 892.605 45.848,871.131 40.261,853.500 44.824 M41.000 49.262 C 41.000 50.013,41.649 55.549,42.441 61.564 C 46.566 92.863,47.421 108.062,47.441 150.500 C 47.457 183.431,47.081 196.279,45.700 210.000 C 43.899 227.886,41.345 248.718,40.457 252.750 L 39.962 255.000 81.886 255.000 L 123.810 255.000 122.448 249.750 C 118.739 235.451,113.522 200.849,111.425 176.642 L 110.745 168.784 113.122 169.506 C 120.589 171.773,129.762 181.113,133.053 189.798 C 134.241 192.934,136.919 203.944,139.003 214.266 C 143.547 236.764,147.046 245.176,155.290 253.421 C 166.259 264.389,179.939 268.236,194.540 264.458 C 218.084 258.365,231.500 234.166,226.934 206.025 C 226.357 202.464,225.650 199.317,225.365 199.032 C 225.080 198.746,223.643 199.938,222.173 201.680 C 217.699 206.981,212.276 210.000,207.228 210.000 C 198.481 210.000,193.158 204.405,185.524 187.189 C 177.578 169.271,176.722 167.518,173.298 162.141 C 171.421 159.193,170.023 156.666,170.193 156.526 C 170.362 156.385,172.975 155.473,176.000 154.500 C 195.716 148.157,204.096 140.693,209.468 124.690 C 212.648 115.216,212.840 104.603,210.028 93.609 C 204.382 71.534,189.939 57.381,166.296 50.757 C 158.757 48.645,156.560 48.562,99.750 48.235 C 50.609 47.952,41.000 48.120,41.000 49.262 M234.397 49.750 C 236.783 57.602,241.317 82.801,242.987 97.500 C 248.084 142.345,244.997 205.593,235.411 252.750 L 234.750 256.000 311.375 256.000 C 353.519 256.000,388.000 255.815,388.000 255.589 C 388.000 255.363,386.858 250.887,385.462 245.641 C 382.197 233.376,379.192 212.861,378.342 197.030 L 377.672 184.559 375.597 187.530 C 371.664 193.160,362.488 201.587,357.846 203.834 C 347.130 209.018,332.064 208.940,320.551 203.639 C 307.055 197.425,301.616 182.994,308.055 170.483 C 310.316 166.088,317.690 159.000,320.000 159.000 C 320.465 159.000,321.336 160.487,321.936 162.305 C 323.308 166.464,330.336 173.421,335.218 175.453 C 339.989 177.438,349.017 177.437,353.782 175.449 C 366.635 170.089,372.390 153.950,365.889 141.500 C 362.500 135.009,357.062 130.914,347.938 127.980 C 333.943 123.480,318.660 125.575,304.985 133.868 C 301.418 136.031,298.380 137.687,298.232 137.549 C 297.199 136.580,301.717 121.055,304.940 114.500 C 310.434 103.327,317.310 95.945,326.408 91.448 C 332.980 88.200,334.512 87.842,341.840 87.842 C 350.993 87.842,357.665 90.226,364.992 96.114 C 369.186 99.485,375.552 107.343,378.219 112.444 L 379.759 115.387 380.360 111.444 C 380.691 109.275,381.430 103.000,382.003 97.500 C 383.132 86.647,387.743 53.895,388.654 50.250 L 389.217 48.000 311.541 48.000 C 238.028 48.000,233.894 48.094,234.397 49.750 M403.667 48.667 C 403.300 49.033,403.000 62.813,403.000 79.288 L 403.000 109.243 409.430 102.298 C 413.469 97.936,418.210 94.079,422.180 91.927 C 427.884 88.834,429.282 88.500,436.527 88.500 C 443.172 88.500,445.408 88.940,449.517 91.055 C 458.185 95.515,463.778 105.353,466.127 120.273 C 467.366 128.145,466.802 156.527,465.028 175.500 C 463.228 194.757,457.057 233.190,452.465 253.750 L 451.962 256.000 491.088 256.000 C 525.383 256.000,530.143 255.816,529.641 254.506 C 528.921 252.630,523.718 221.060,521.071 202.500 C 516.087 167.564,513.860 119.897,516.764 110.343 C 518.583 104.358,523.832 97.030,528.776 93.574 C 532.573 90.919,533.842 90.591,540.085 90.648 C 546.371 90.706,548.090 91.199,556.308 95.303 C 561.364 97.828,567.862 101.977,570.750 104.524 L 576.000 109.155 576.000 78.578 L 576.000 48.000 490.167 48.000 C 442.958 48.000,404.033 48.300,403.667 48.667 M590.000 49.414 C 590.000 50.249,590.662 55.784,591.471 61.716 C 595.626 92.170,596.447 106.838,596.442 150.500 C 596.438 184.102,596.057 197.215,594.701 210.500 C 592.917 227.957,590.336 248.758,589.457 252.750 L 588.962 255.000 630.820 255.000 L 672.678 255.000 670.863 246.750 C 666.435 226.624,662.259 198.679,660.478 177.250 C 659.682 167.675,660.046 167.375,667.068 171.828 C 673.388 175.836,679.574 183.262,682.083 189.853 C 683.266 192.959,685.737 202.925,687.575 212.000 C 691.669 232.213,692.445 234.947,696.210 242.411 C 701.651 253.197,711.892 261.540,723.500 264.641 C 740.973 269.308,760.509 260.638,770.347 243.851 C 773.709 238.115,777.002 225.347,776.992 218.090 C 776.985 212.486,775.289 199.956,774.421 199.088 C 774.167 198.833,772.730 200.034,771.229 201.756 C 766.617 207.047,761.244 210.000,756.228 210.000 C 746.883 210.000,742.252 204.562,732.117 181.683 C 728.776 174.141,724.432 165.453,722.464 162.376 C 720.496 159.299,719.023 156.666,719.193 156.526 C 719.362 156.385,721.975 155.485,725.000 154.525 C 728.025 153.565,733.716 151.260,737.646 149.402 C 757.318 140.104,765.727 116.644,758.449 91.362 C 755.190 80.042,751.169 73.384,742.822 65.488 C 735.372 58.440,727.298 54.120,715.296 50.757 C 707.757 48.645,705.560 48.562,648.750 48.235 C 596.750 47.936,590.000 48.071,590.000 49.414 M127.364 94.489 C 144.516 98.123,150.000 107.748,142.044 120.258 C 137.768 126.981,131.990 129.309,118.500 129.747 C 112.450 129.944,106.942 129.720,106.260 129.250 C 105.399 128.656,104.817 122.997,104.353 110.697 L 103.686 93.000 112.093 93.017 C 116.717 93.027,123.589 93.689,127.364 94.489 M676.364 94.489 C 693.609 98.143,699.043 107.680,691.044 120.258 C 686.768 126.981,680.990 129.309,667.500 129.747 C 661.450 129.944,655.954 129.727,655.287 129.266 C 654.460 128.695,653.853 122.780,653.382 110.714 L 652.691 93.000 661.095 93.017 C 665.718 93.027,672.589 93.689,676.364 94.489 M874.694 99.094 C 883.055 103.141,891.056 116.701,895.114 133.699 C 896.891 141.139,897.146 144.665,896.763 156.500 C 896.383 168.266,895.887 171.740,893.656 178.269 C 887.757 195.533,878.942 204.300,867.510 204.274 C 857.647 204.252,850.148 198.595,844.260 186.737 C 839.278 176.702,837.658 168.496,837.603 153.000 C 837.549 137.626,838.899 131.063,844.596 119.000 C 849.445 108.733,854.934 101.737,860.176 99.142 C 865.612 96.451,869.210 96.439,874.694 99.094 M97.000 292.555 C 78.011 296.633,58.208 312.722,48.536 331.929 C 42.196 344.517,40.499 351.924,40.612 366.500 C 40.764 386.040,45.211 400.286,55.284 413.500 C 73.605 437.533,113.823 446.935,141.446 433.641 C 150.759 429.159,156.259 424.210,159.689 417.224 C 162.171 412.169,162.500 410.389,162.500 402.000 C 162.500 395.037,161.996 391.231,160.614 387.750 C 159.577 385.137,158.519 383.000,158.263 383.000 C 158.007 383.000,154.633 385.930,150.764 389.512 C 146.547 393.416,140.794 397.475,136.397 399.648 C 129.615 403.000,128.552 403.237,122.281 402.786 C 114.217 402.208,108.664 399.637,101.988 393.392 C 90.064 382.238,85.741 360.569,92.036 343.500 C 96.186 332.247,109.786 322.000,120.570 322.000 C 125.176 322.000,130.566 324.320,131.945 326.896 L 133.050 328.962 129.509 326.873 C 123.332 323.228,115.334 326.429,113.008 333.476 C 112.053 336.369,112.181 337.622,113.810 341.302 C 116.895 348.277,123.604 352.000,133.087 352.000 C 147.538 352.000,156.412 340.745,156.347 322.500 C 156.316 314.060,153.965 308.171,148.457 302.738 C 138.510 292.927,116.004 288.474,97.000 292.555 M187.712 316.250 C 186.687 353.045,183.403 370.719,170.519 408.789 C 165.919 422.380,161.848 434.288,161.471 435.250 C 160.828 436.892,162.536 437.000,189.010 437.000 L 217.233 437.000 216.593 434.750 C 215.158 429.704,214.105 423.010,213.422 414.586 L 212.700 405.688 215.100 406.388 C 222.563 408.564,235.939 408.104,242.406 405.449 C 244.228 404.701,244.281 405.075,243.614 413.921 C 242.955 422.640,241.656 431.308,240.416 435.250 C 239.900 436.888,241.664 437.000,268.040 437.000 C 294.476 437.000,296.170 436.892,295.504 435.250 C 295.114 434.288,290.766 421.615,285.843 407.090 C 271.251 364.037,268.621 350.285,268.569 316.750 L 268.535 295.000 228.420 295.000 L 188.305 295.000 187.712 316.250 M306.492 297.690 C 312.431 333.516,312.429 392.662,306.486 432.250 L 305.773 437.000 334.495 437.000 L 363.217 437.000 362.516 434.250 C 360.694 427.104,357.972 411.315,356.610 400.000 C 353.715 375.948,353.634 376.712,358.800 379.411 C 366.268 383.312,369.298 389.204,373.166 407.343 C 376.979 425.224,378.893 429.663,385.473 435.886 C 399.971 449.598,421.950 444.813,430.887 426.000 C 433.197 421.137,433.500 419.264,433.500 409.833 C 433.500 403.966,433.232 398.898,432.904 398.570 C 432.576 398.242,430.632 399.554,428.584 401.485 C 419.295 410.246,412.624 406.563,404.422 388.142 C 401.815 382.289,398.591 375.761,397.256 373.635 C 394.543 369.314,394.807 368.773,400.500 366.985 C 407.497 364.788,411.645 362.211,415.824 357.462 C 423.281 348.991,425.244 336.140,421.089 323.000 C 417.279 310.954,408.248 302.175,395.158 297.796 C 388.782 295.663,386.755 295.554,347.263 295.224 L 306.026 294.879 306.492 297.690 M457.684 315.250 C 456.509 352.748,453.175 370.501,439.900 409.942 C 435.005 424.485,431.000 436.523,431.000 436.692 C 431.000 436.862,443.630 437.000,459.067 437.000 L 487.135 437.000 486.413 434.750 C 484.724 429.485,483.997 424.926,483.357 415.591 L 482.679 405.683 485.089 406.393 C 490.549 408.001,503.492 408.159,508.250 406.676 L 513.000 405.196 512.983 413.848 C 512.973 418.607,512.298 425.650,511.483 429.500 C 510.667 433.349,510.000 436.612,510.000 436.750 C 510.000 436.887,522.556 437.000,537.902 437.000 L 565.805 437.000 555.420 406.250 C 540.778 362.898,537.172 342.813,538.271 310.750 L 538.812 295.000 498.565 295.000 L 458.318 295.000 457.684 315.250 M578.000 296.807 C 578.000 297.818,579.131 306.262,580.513 315.572 C 586.812 358.002,584.085 387.382,569.402 435.250 C 568.901 436.884,570.524 437.000,594.000 437.000 C 618.048 437.000,619.109 436.920,618.544 435.140 C 614.784 423.291,613.870 399.520,616.541 383.046 C 617.384 377.847,618.221 373.445,618.401 373.266 C 618.580 373.086,620.110 377.115,621.799 382.220 C 626.003 394.922,629.003 410.347,629.615 422.410 C 630.439 438.665,628.510 437.000,646.519 437.000 L 662.000 437.000 662.018 432.250 C 662.072 418.389,671.224 375.000,674.094 375.000 C 676.410 375.000,679.376 406.483,678.641 423.250 L 678.037 437.000 702.019 437.000 C 715.208 437.000,726.000 436.872,726.000 436.715 C 726.000 436.559,725.137 433.971,724.082 430.965 C 720.892 421.873,717.951 409.253,715.823 395.522 C 712.250 372.458,712.178 330.124,715.663 300.250 L 716.275 295.000 687.838 295.000 L 659.401 295.000 658.182 310.750 C 656.897 327.350,655.063 337.972,651.940 346.890 C 648.969 355.376,649.068 355.423,644.527 343.342 C 640.602 332.898,636.385 314.720,635.285 303.500 L 634.500 295.500 606.250 295.234 C 579.401 294.982,578.000 295.060,578.000 296.807 M736.342 296.449 C 737.419 299.254,740.159 313.618,741.599 324.000 C 743.724 339.320,744.447 369.921,743.112 388.048 C 742.132 401.360,739.879 419.187,737.399 433.250 L 736.738 437.000 789.325 437.000 L 841.911 437.000 840.487 432.964 C 838.512 427.366,836.296 415.026,835.556 405.500 C 835.214 401.100,834.690 395.545,834.391 393.156 L 833.849 388.811 830.946 392.758 C 825.094 400.716,816.483 404.518,806.009 403.769 C 793.421 402.868,785.000 395.771,785.000 386.064 C 785.000 381.013,786.896 377.107,791.041 373.619 C 794.536 370.678,796.000 370.325,796.000 372.423 C 796.000 373.206,797.179 375.247,798.619 376.959 C 805.892 385.603,818.438 385.087,825.268 375.864 C 827.736 372.532,828.586 365.306,827.056 360.669 C 824.676 353.459,814.701 348.000,803.908 348.000 C 798.107 348.000,788.274 350.957,784.034 353.976 C 782.302 355.209,780.650 355.983,780.362 355.696 C 780.075 355.408,780.568 352.333,781.457 348.861 C 784.339 337.611,790.813 328.767,799.241 324.567 C 810.932 318.741,823.743 323.005,832.179 335.528 L 835.857 340.990 836.488 335.245 C 837.386 327.058,840.978 301.017,841.660 297.750 L 842.233 295.000 789.010 295.000 C 742.947 295.000,735.861 295.195,736.342 296.449 M848.391 296.750 C 849.620 300.845,853.028 320.302,854.215 330.000 C 854.974 336.202,855.475 350.939,855.439 366.000 C 855.376 392.314,853.868 410.138,850.173 428.250 L 848.388 437.000 901.194 437.000 L 954.000 437.000 954.000 406.500 C 954.000 389.725,953.818 376.000,953.595 376.000 C 953.372 376.000,952.030 377.979,950.612 380.399 C 949.194 382.818,944.626 388.421,940.460 392.849 C 930.976 402.931,923.597 407.000,914.800 407.000 C 903.359 407.000,897.234 401.280,894.377 387.924 C 891.361 373.829,893.929 340.745,900.541 308.511 C 901.893 301.917,903.000 296.180,903.000 295.761 C 903.000 295.343,890.595 295.000,875.433 295.000 C 849.645 295.000,847.899 295.113,848.391 296.750 M371.790 328.890 C 376.901 331.501,378.508 334.480,377.552 339.574 C 376.675 344.249,372.520 348.485,367.421 349.900 C 361.925 351.426,351.049 351.329,350.514 349.750 C 350.282 349.063,349.958 343.382,349.796 337.126 L 349.500 325.751 358.500 326.225 C 365.088 326.572,368.650 327.287,371.790 328.890 M237.448 363.182 L 239.751 372.927 236.504 373.999 C 233.304 375.055,218.259 375.593,217.350 374.683 C 216.728 374.062,221.075 356.589,225.160 343.281 L 228.437 332.610 231.791 343.024 C 233.636 348.751,236.181 357.822,237.448 363.182 M503.954 350.959 C 506.174 358.817,508.106 367.060,508.246 369.277 C 508.480 372.986,508.260 373.377,505.500 374.164 C 502.207 375.103,488.129 375.463,487.296 374.629 C 486.465 373.798,493.850 344.784,497.005 336.487 C 498.534 332.466,499.004 333.445,503.954 350.959 " stroke="none" fill="#d3bca8" fill-rule="evenodd"></path></svg>